# xmcd
#
# Track frame offsets:
#	150
#	28375
#	42121
#	63800
#	82854
#	99909
#	118708
#	142752
#	163250
#	209320
#	271108
#	313657
#
# Disc length: 4536 seconds
#
# Revision: 1
# Processed by: cddbd v1.5.2PL0 Copyright (c) Steve Scherf et al.
# Submitted via: audiograbber 1.83.01
#
DISCID=9811b60c
DTITLE=Bluespumpm -  Dirty Thirty Open Hearts [CD2]
DYEAR=2006
DGENRE=Blues
TTITLE0=Try To Make Your Mind
TTITLE1=Bluesman
TTITLE2=Tribute To Your Love
TTITLE3=Another Love Song
TTITLE4=Take A Deep Breath
TTITLE5=Red House
TTITLE6=Ya Ya
TTITLE7=Berndrums
TTITLE8=Dust My Broom
TTITLE9=Blues For The Lost Days
TTITLE10=No Expectations
TTITLE11=Hoochie Coochie Man
EXTD=Track 10,11,12  - Mick Taylor and Bluespumpm
EXTT0=
EXTT1=
EXTT2=
EXTT3=
EXTT4=
EXTT5=
EXTT6=
EXTT7=
EXTT8=
EXTT9=Mick Taylor and Bluespumpm
EXTT10=Mick Taylor and Bluespumpm
EXTT11=Mick Taylor and Bluespumpm
PLAYORDER=
